<mxfile host="app.diagrams.net" modified="2024-05-28T11:47:10.820Z" agent="Mozilla/5.0 (X11; Ubuntu; Linux x86_64; rv:126.0) Gecko/20100101 Firefox/126.0" etag="rIRudUdKhAVAKRKcykNL" version="24.4.9" type="github">
  <diagram name="Page-1" id="unYs7EcL0WFt0l7JvkVK">
    <mxGraphModel dx="2607" dy="1273" grid="1" gridSize="10" guides="1" tooltips="1" connect="1" arrows="1" fold="1" page="1" pageScale="1" pageWidth="3300" pageHeight="4681" math="0" shadow="0">
      <root>
        <mxCell id="0" />
        <mxCell id="1" parent="0" />
        <mxCell id="YgDvmPQMBhkh0xwAAEl4-1" value="frame" style="shape=umlFrame;whiteSpace=wrap;html=1;pointerEvents=0;" vertex="1" parent="1">
          <mxGeometry x="440" y="70" width="550" height="660" as="geometry" />
        </mxCell>
        <mxCell id="YgDvmPQMBhkh0xwAAEl4-2" value="Créer une fiche" style="ellipse;whiteSpace=wrap;html=1;" vertex="1" parent="1">
          <mxGeometry x="470" y="150" width="120" height="50" as="geometry" />
        </mxCell>
        <mxCell id="YgDvmPQMBhkh0xwAAEl4-5" value="Modifier une fiche" style="ellipse;whiteSpace=wrap;html=1;" vertex="1" parent="1">
          <mxGeometry x="470" y="270" width="120" height="50" as="geometry" />
        </mxCell>
        <mxCell id="YgDvmPQMBhkh0xwAAEl4-6" value="Supprimer une fiche" style="ellipse;whiteSpace=wrap;html=1;" vertex="1" parent="1">
          <mxGeometry x="470" y="520" width="120" height="50" as="geometry" />
        </mxCell>
        <mxCell id="YgDvmPQMBhkh0xwAAEl4-7" value="Examiner le 1er niveau d&#39;une fiche " style="ellipse;whiteSpace=wrap;html=1;" vertex="1" parent="1">
          <mxGeometry x="810" y="222" width="150" height="60" as="geometry" />
        </mxCell>
        <mxCell id="YgDvmPQMBhkh0xwAAEl4-11" value="Consulter une fiche " style="ellipse;whiteSpace=wrap;html=1;" vertex="1" parent="1">
          <mxGeometry x="470" y="392.5" width="120" height="50" as="geometry" />
        </mxCell>
        <mxCell id="YgDvmPQMBhkh0xwAAEl4-12" value="Expert Métier" style="shape=umlActor;verticalLabelPosition=bottom;verticalAlign=top;html=1;" vertex="1" parent="1">
          <mxGeometry x="280" y="245" width="30" height="60" as="geometry" />
        </mxCell>
        <mxCell id="YgDvmPQMBhkh0xwAAEl4-13" value="RPO" style="shape=umlActor;verticalLabelPosition=bottom;verticalAlign=top;html=1;" vertex="1" parent="1">
          <mxGeometry x="1110" y="210" width="30" height="60" as="geometry" />
        </mxCell>
        <mxCell id="YgDvmPQMBhkh0xwAAEl4-14" value="DPO" style="shape=umlActor;verticalLabelPosition=bottom;verticalAlign=top;html=1;" vertex="1" parent="1">
          <mxGeometry x="1110" y="342" width="30" height="60" as="geometry" />
        </mxCell>
        <mxCell id="YgDvmPQMBhkh0xwAAEl4-15" value="GDPO" style="shape=umlActor;verticalLabelPosition=bottom;verticalAlign=top;html=1;" vertex="1" parent="1">
          <mxGeometry x="1110" y="472" width="30" height="60" as="geometry" />
        </mxCell>
        <mxCell id="YgDvmPQMBhkh0xwAAEl4-18" value="Examiner le 2ème niveau d&#39;une fiche " style="ellipse;whiteSpace=wrap;html=1;" vertex="1" parent="1">
          <mxGeometry x="800" y="342" width="160" height="60" as="geometry" />
        </mxCell>
        <mxCell id="YgDvmPQMBhkh0xwAAEl4-19" value="Examiner le 3ème niveau d&#39;une fiche " style="ellipse;whiteSpace=wrap;html=1;" vertex="1" parent="1">
          <mxGeometry x="800" y="471" width="160" height="60" as="geometry" />
        </mxCell>
        <mxCell id="YgDvmPQMBhkh0xwAAEl4-20" value="Consulter le tableau de bord des fiches" style="ellipse;whiteSpace=wrap;html=1;" vertex="1" parent="1">
          <mxGeometry x="605" y="610" width="205" height="60" as="geometry" />
        </mxCell>
        <mxCell id="YgDvmPQMBhkh0xwAAEl4-22" value="" style="endArrow=none;html=1;rounded=0;exitX=1;exitY=0.3333333333333333;exitDx=0;exitDy=0;exitPerimeter=0;entryX=0;entryY=0.5;entryDx=0;entryDy=0;" edge="1" parent="1" source="YgDvmPQMBhkh0xwAAEl4-12" target="YgDvmPQMBhkh0xwAAEl4-2">
          <mxGeometry width="50" height="50" relative="1" as="geometry">
            <mxPoint x="450" y="260" as="sourcePoint" />
            <mxPoint x="500" y="210" as="targetPoint" />
          </mxGeometry>
        </mxCell>
        <mxCell id="YgDvmPQMBhkh0xwAAEl4-23" value="" style="endArrow=none;html=1;rounded=0;exitX=0.5;exitY=0.5;exitDx=0;exitDy=0;exitPerimeter=0;entryX=0;entryY=0.5;entryDx=0;entryDy=0;" edge="1" parent="1" source="YgDvmPQMBhkh0xwAAEl4-12" target="YgDvmPQMBhkh0xwAAEl4-5">
          <mxGeometry width="50" height="50" relative="1" as="geometry">
            <mxPoint x="320" y="275" as="sourcePoint" />
            <mxPoint x="480" y="195" as="targetPoint" />
          </mxGeometry>
        </mxCell>
        <mxCell id="YgDvmPQMBhkh0xwAAEl4-24" value="" style="endArrow=none;html=1;rounded=0;exitX=0.5;exitY=0.714;exitDx=0;exitDy=0;exitPerimeter=0;entryX=0;entryY=0.5;entryDx=0;entryDy=0;" edge="1" parent="1" source="YgDvmPQMBhkh0xwAAEl4-12" target="YgDvmPQMBhkh0xwAAEl4-6">
          <mxGeometry width="50" height="50" relative="1" as="geometry">
            <mxPoint x="280" y="390" as="sourcePoint" />
            <mxPoint x="455" y="390" as="targetPoint" />
          </mxGeometry>
        </mxCell>
        <mxCell id="YgDvmPQMBhkh0xwAAEl4-25" value="" style="endArrow=none;html=1;rounded=0;exitX=0.5;exitY=0.7;exitDx=0;exitDy=0;exitPerimeter=0;entryX=0;entryY=0.5;entryDx=0;entryDy=0;" edge="1" parent="1" source="YgDvmPQMBhkh0xwAAEl4-12" target="YgDvmPQMBhkh0xwAAEl4-11">
          <mxGeometry width="50" height="50" relative="1" as="geometry">
            <mxPoint x="280" y="370" as="sourcePoint" />
            <mxPoint x="455" y="447" as="targetPoint" />
          </mxGeometry>
        </mxCell>
        <mxCell id="YgDvmPQMBhkh0xwAAEl4-26" value="" style="endArrow=none;html=1;rounded=0;exitX=1;exitY=0.5;exitDx=0;exitDy=0;entryX=0.5;entryY=0.717;entryDx=0;entryDy=0;entryPerimeter=0;" edge="1" parent="1" source="YgDvmPQMBhkh0xwAAEl4-7" target="YgDvmPQMBhkh0xwAAEl4-13">
          <mxGeometry width="50" height="50" relative="1" as="geometry">
            <mxPoint x="920" y="362" as="sourcePoint" />
            <mxPoint x="1080" y="282" as="targetPoint" />
          </mxGeometry>
        </mxCell>
        <mxCell id="YgDvmPQMBhkh0xwAAEl4-27" value="" style="endArrow=none;html=1;rounded=0;exitX=1;exitY=0.5;exitDx=0;exitDy=0;entryX=0.5;entryY=0.5;entryDx=0;entryDy=0;entryPerimeter=0;" edge="1" parent="1" source="YgDvmPQMBhkh0xwAAEl4-18" target="YgDvmPQMBhkh0xwAAEl4-14">
          <mxGeometry width="50" height="50" relative="1" as="geometry">
            <mxPoint x="970" y="262" as="sourcePoint" />
            <mxPoint x="1135" y="270" as="targetPoint" />
          </mxGeometry>
        </mxCell>
        <mxCell id="YgDvmPQMBhkh0xwAAEl4-28" value="" style="endArrow=none;html=1;rounded=0;exitX=1;exitY=0.5;exitDx=0;exitDy=0;entryX=0.5;entryY=0.5;entryDx=0;entryDy=0;entryPerimeter=0;" edge="1" parent="1" source="YgDvmPQMBhkh0xwAAEl4-19" target="YgDvmPQMBhkh0xwAAEl4-15">
          <mxGeometry width="50" height="50" relative="1" as="geometry">
            <mxPoint x="970" y="382" as="sourcePoint" />
            <mxPoint x="1135" y="382" as="targetPoint" />
          </mxGeometry>
        </mxCell>
        <mxCell id="YgDvmPQMBhkh0xwAAEl4-29" value="&lt;i&gt;&amp;lt;&amp;lt;include&amp;gt;&amp;gt;&lt;/i&gt;" style="endArrow=open;endSize=12;dashed=1;html=1;rounded=0;exitX=0;exitY=0.5;exitDx=0;exitDy=0;entryX=0.5;entryY=0;entryDx=0;entryDy=0;" edge="1" parent="1" source="YgDvmPQMBhkh0xwAAEl4-7" target="YgDvmPQMBhkh0xwAAEl4-11">
          <mxGeometry width="160" relative="1" as="geometry">
            <mxPoint x="580" y="417.15999999999997" as="sourcePoint" />
            <mxPoint x="740" y="417.15999999999997" as="targetPoint" />
          </mxGeometry>
        </mxCell>
        <mxCell id="YgDvmPQMBhkh0xwAAEl4-35" value="&lt;i&gt;&amp;lt;&amp;lt;include&amp;gt;&amp;gt;&lt;/i&gt;" style="endArrow=open;endSize=12;dashed=1;html=1;rounded=0;exitX=0;exitY=0.5;exitDx=0;exitDy=0;entryX=1;entryY=0.5;entryDx=0;entryDy=0;" edge="1" parent="1" source="YgDvmPQMBhkh0xwAAEl4-18" target="YgDvmPQMBhkh0xwAAEl4-11">
          <mxGeometry width="160" relative="1" as="geometry">
            <mxPoint x="800" y="330" as="sourcePoint" />
            <mxPoint x="550" y="570" as="targetPoint" />
          </mxGeometry>
        </mxCell>
        <mxCell id="YgDvmPQMBhkh0xwAAEl4-36" value="&lt;i&gt;&amp;lt;&amp;lt;include&amp;gt;&amp;gt;&lt;/i&gt;" style="endArrow=open;endSize=12;dashed=1;html=1;rounded=0;exitX=0;exitY=0.5;exitDx=0;exitDy=0;entryX=0.5;entryY=1;entryDx=0;entryDy=0;" edge="1" parent="1" source="YgDvmPQMBhkh0xwAAEl4-19" target="YgDvmPQMBhkh0xwAAEl4-11">
          <mxGeometry width="160" relative="1" as="geometry">
            <mxPoint x="810" y="320" as="sourcePoint" />
            <mxPoint x="600" y="465" as="targetPoint" />
          </mxGeometry>
        </mxCell>
        <mxCell id="YgDvmPQMBhkh0xwAAEl4-37" value="Il est à noter que l&#39;exper métier ne peut consulter, modifier, ou supprimer que les fiches de son propre création." style="shape=note2;boundedLbl=1;whiteSpace=wrap;html=1;size=25;verticalAlign=top;align=center;" vertex="1" parent="1">
          <mxGeometry x="120" y="531" width="222" height="90" as="geometry" />
        </mxCell>
        <mxCell id="YgDvmPQMBhkh0xwAAEl4-41" value="" style="endArrow=none;dashed=1;html=1;dashPattern=1 3;strokeWidth=2;rounded=0;entryX=0.5;entryY=1;entryDx=0;entryDy=0;exitX=0.998;exitY=0.875;exitDx=0;exitDy=0;exitPerimeter=0;" edge="1" parent="1" source="YgDvmPQMBhkh0xwAAEl4-37" target="YgDvmPQMBhkh0xwAAEl4-6">
          <mxGeometry width="50" height="50" relative="1" as="geometry">
            <mxPoint x="350" y="610" as="sourcePoint" />
            <mxPoint x="450" y="570" as="targetPoint" />
            <Array as="points">
              <mxPoint x="530" y="610" />
            </Array>
          </mxGeometry>
        </mxCell>
        <mxCell id="YgDvmPQMBhkh0xwAAEl4-43" value="" style="endArrow=none;dashed=1;html=1;dashPattern=1 3;strokeWidth=2;rounded=0;exitX=0.5;exitY=1;exitDx=0;exitDy=0;exitPerimeter=0;entryX=0.451;entryY=1.007;entryDx=0;entryDy=0;entryPerimeter=0;" edge="1" parent="1" source="YgDvmPQMBhkh0xwAAEl4-37" target="YgDvmPQMBhkh0xwAAEl4-11">
          <mxGeometry width="50" height="50" relative="1" as="geometry">
            <mxPoint x="240" y="510" as="sourcePoint" />
            <mxPoint x="290" y="460" as="targetPoint" />
            <Array as="points">
              <mxPoint x="231" y="660" />
              <mxPoint x="570" y="660" />
              <mxPoint x="570" y="590" />
              <mxPoint x="610" y="590" />
              <mxPoint x="610" y="490" />
              <mxPoint x="524" y="490" />
            </Array>
          </mxGeometry>
        </mxCell>
        <mxCell id="YgDvmPQMBhkh0xwAAEl4-45" value="" style="endArrow=none;dashed=1;html=1;dashPattern=1 3;strokeWidth=2;rounded=0;exitX=1;exitY=0.5;exitDx=0;exitDy=0;entryX=0.5;entryY=0;entryDx=0;entryDy=0;entryPerimeter=0;" edge="1" parent="1" source="YgDvmPQMBhkh0xwAAEl4-5" target="YgDvmPQMBhkh0xwAAEl4-37">
          <mxGeometry width="50" height="50" relative="1" as="geometry">
            <mxPoint x="650" y="240" as="sourcePoint" />
            <mxPoint x="670" y="30" as="targetPoint" />
            <Array as="points">
              <mxPoint x="630" y="295" />
              <mxPoint x="630" y="40" />
              <mxPoint x="230" y="40" />
            </Array>
          </mxGeometry>
        </mxCell>
        <mxCell id="YgDvmPQMBhkh0xwAAEl4-46" value="" style="endArrow=none;html=1;rounded=0;exitX=0.5;exitY=0.5;exitDx=0;exitDy=0;exitPerimeter=0;entryX=0.318;entryY=0.997;entryDx=0;entryDy=0;entryPerimeter=0;" edge="1" parent="1" source="YgDvmPQMBhkh0xwAAEl4-12" target="YgDvmPQMBhkh0xwAAEl4-20">
          <mxGeometry width="50" height="50" relative="1" as="geometry">
            <mxPoint x="290" y="353" as="sourcePoint" />
            <mxPoint x="465" y="610" as="targetPoint" />
            <Array as="points">
              <mxPoint x="80" y="275" />
              <mxPoint x="80" y="760" />
              <mxPoint x="670" y="760" />
            </Array>
          </mxGeometry>
        </mxCell>
        <mxCell id="YgDvmPQMBhkh0xwAAEl4-48" value="" style="endArrow=none;html=1;rounded=0;entryX=0.5;entryY=0.5;entryDx=0;entryDy=0;entryPerimeter=0;exitX=1;exitY=0;exitDx=0;exitDy=0;" edge="1" parent="1" source="YgDvmPQMBhkh0xwAAEl4-20" target="YgDvmPQMBhkh0xwAAEl4-15">
          <mxGeometry width="50" height="50" relative="1" as="geometry">
            <mxPoint x="910" y="620" as="sourcePoint" />
            <mxPoint x="960" y="570" as="targetPoint" />
          </mxGeometry>
        </mxCell>
        <mxCell id="YgDvmPQMBhkh0xwAAEl4-49" value="" style="endArrow=none;html=1;rounded=0;entryX=0.5;entryY=0.5;entryDx=0;entryDy=0;entryPerimeter=0;exitX=1;exitY=0.5;exitDx=0;exitDy=0;" edge="1" parent="1" source="YgDvmPQMBhkh0xwAAEl4-20" target="YgDvmPQMBhkh0xwAAEl4-14">
          <mxGeometry width="50" height="50" relative="1" as="geometry">
            <mxPoint x="820" y="650" as="sourcePoint" />
            <mxPoint x="1135" y="512" as="targetPoint" />
            <Array as="points">
              <mxPoint x="1200" y="640" />
              <mxPoint x="1200" y="372" />
            </Array>
          </mxGeometry>
        </mxCell>
        <mxCell id="YgDvmPQMBhkh0xwAAEl4-51" value="" style="endArrow=none;html=1;rounded=0;exitX=0.636;exitY=1.002;exitDx=0;exitDy=0;exitPerimeter=0;entryX=0.5;entryY=0.5;entryDx=0;entryDy=0;entryPerimeter=0;" edge="1" parent="1" source="YgDvmPQMBhkh0xwAAEl4-20" target="YgDvmPQMBhkh0xwAAEl4-13">
          <mxGeometry width="50" height="50" relative="1" as="geometry">
            <mxPoint x="1060" y="740" as="sourcePoint" />
            <mxPoint x="1110" y="690" as="targetPoint" />
            <Array as="points">
              <mxPoint x="735" y="690" />
              <mxPoint x="1260" y="690" />
              <mxPoint x="1260" y="240" />
            </Array>
          </mxGeometry>
        </mxCell>
        <mxCell id="YgDvmPQMBhkh0xwAAEl4-52" value="Bien que la structure du tableau de bord demeure invariante vis-à-vis un changement d&#39;acteur, les fiches impliquées par l&#39;analyse statistique présentée dans le tableau varient d&#39;un utilisateur à un autre" style="shape=note2;boundedLbl=1;whiteSpace=wrap;html=1;size=25;verticalAlign=top;align=center;" vertex="1" parent="1">
          <mxGeometry x="1030" y="70" width="260" height="110" as="geometry" />
        </mxCell>
        <mxCell id="YgDvmPQMBhkh0xwAAEl4-53" value="" style="endArrow=none;dashed=1;html=1;dashPattern=1 3;strokeWidth=2;rounded=0;entryX=0.475;entryY=0.997;entryDx=0;entryDy=0;entryPerimeter=0;exitX=0;exitY=0;exitDx=260;exitDy=67.5;exitPerimeter=0;" edge="1" parent="1" source="YgDvmPQMBhkh0xwAAEl4-52" target="YgDvmPQMBhkh0xwAAEl4-20">
          <mxGeometry width="50" height="50" relative="1" as="geometry">
            <mxPoint x="1320" y="110" as="sourcePoint" />
            <mxPoint x="860" y="870" as="targetPoint" />
            <Array as="points">
              <mxPoint x="1340" y="138" />
              <mxPoint x="1340" y="780" />
              <mxPoint x="702" y="780" />
            </Array>
          </mxGeometry>
        </mxCell>
      </root>
    </mxGraphModel>
  </diagram>
</mxfile>
